<svg xmlns="http://www.w3.org/2000/svg" width="57.769" height="24.5" viewBox="0 0 57.769 24.5"><defs><style>.a{fill:none;stroke:#000;stroke-linecap:round;stroke-linejoin:round;stroke-width:2px;}</style></defs><g transform="translate(-3612.213 -1749.304)"><path class="a" d="M3662.848,1770.805l-14.038,2a2,2,0,0,1-1.838-1.211h0a6.434,6.434,0,0,0-11.827,0h0a2,2,0,0,1-1.838,1.211l-13.958-2a2,2,0,0,1-2-2v-16.5a2,2,0,0,1,2-2h43.5a2,2,0,0,1,2,2v16.5a2,2,0,0,1-2,2Z"/><rect class="a" width="4.134" height="8.118" transform="translate(3613.213 1757.496)"/><rect class="a" width="4.134" height="8.118" transform="translate(3664.847 1757.496)"/><path class="a" d="M3624.781,1758.115h32.633a2.03,2.03,0,0,1,2.03,2.03h0a2.029,2.029,0,0,1-2.03,2.029h-32.633a2.03,2.03,0,0,1-2.03-2.029h0A2.03,2.03,0,0,1,3624.781,1758.115Z"/></g></svg>