<svg xmlns="http://www.w3.org/2000/svg" width="58.112" height="49.504" viewBox="0 0 58.112 49.504"><defs><style>.a{fill:none;stroke:#000;stroke-linecap:round;stroke-linejoin:round;stroke-width:2px;}</style></defs><g transform="translate(-3729.309 -1736.802)"><rect class="a" width="46.985" height="32.367" rx="1.596" transform="translate(3734.873 1737.803)"/><path class="a" d="M3777.793,1760.6v4.113a1.6,1.6,0,0,1-1.59,1.6h-35.667a1.6,1.6,0,0,1-1.59-1.6v-21.456a1.6,1.6,0,0,1,1.59-1.6h35.657a1.6,1.6,0,0,1,1.591,1.6Z"/><path class="a" d="M3781.857,1770.17h-46.985l-4.564,10.394h56.113Z"/><path class="a" d="M3730.308,1780.564h56.113v3.143a1.6,1.6,0,0,1-1.6,1.6h-52.913a1.6,1.6,0,0,1-1.6-1.6h0v-3.143Z"/><path class="a" d="M3764.084,1776.522h-11.439l-1.111,4.042h13.659Z"/></g></svg>